<svg width="24" height="24" viewBox="0 0 24 24" fill="none" xmlns="http://www.w3.org/2000/svg">
<path d="M6.81 0.219C6.95056 0.0787966 7.14097 4.21785e-05 7.3395 0L16.6605 0C16.859 4.21785e-05 17.0494 0.0787966 17.19 0.219L23.781 6.81C23.9212 6.95056 24 7.14097 24 7.3395V16.6605C24 16.859 23.9212 17.0494 23.781 17.19L17.19 23.781C17.0494 23.9212 16.859 24 16.6605 24H7.3395C7.14097 24 6.95056 23.9212 6.81 23.781L0.219 17.19C0.0787966 17.0494 4.21785e-05 16.859 0 16.6605L0 7.3395C4.21785e-05 7.14097 0.0787966 6.95056 0.219 6.81L6.81 0.219ZM7.65 1.5L1.5 7.65V16.35L7.65 22.5H16.35L22.5 16.35V7.65L16.35 1.5H7.65Z" fill="#FAFAFB"/>
<path d="M6.96912 6.969C7.03879 6.89916 7.12155 6.84374 7.21267 6.80593C7.30379 6.76812 7.40147 6.74866 7.50012 6.74866C7.59877 6.74866 7.69645 6.76812 7.78757 6.80593C7.87869 6.84374 7.96145 6.89916 8.03112 6.969L12.0001 10.9395L15.9691 6.969C16.0389 6.89927 16.1216 6.84395 16.2127 6.80622C16.3039 6.76848 16.4015 6.74905 16.5001 6.74905C16.5987 6.74905 16.6964 6.76848 16.7875 6.80622C16.8786 6.84395 16.9614 6.89927 17.0311 6.969C17.1009 7.03873 17.1562 7.12152 17.1939 7.21263C17.2316 7.30374 17.2511 7.40139 17.2511 7.5C17.2511 7.59862 17.2316 7.69627 17.1939 7.78738C17.1562 7.87849 17.1009 7.96127 17.0311 8.031L13.0606 12L17.0311 15.969C17.1009 16.0387 17.1562 16.1215 17.1939 16.2126C17.2316 16.3037 17.2511 16.4014 17.2511 16.5C17.2511 16.5986 17.2316 16.6963 17.1939 16.7874C17.1562 16.8785 17.1009 16.9613 17.0311 17.031C16.9614 17.1007 16.8786 17.156 16.7875 17.1938C16.6964 17.2315 16.5987 17.2509 16.5001 17.2509C16.4015 17.2509 16.3039 17.2315 16.2127 17.1938C16.1216 17.156 16.0389 17.1007 15.9691 17.031L12.0001 13.0605L8.03112 17.031C7.96139 17.1007 7.8786 17.156 7.7875 17.1938C7.69639 17.2315 7.59874 17.2509 7.50012 17.2509C7.4015 17.2509 7.30385 17.2315 7.21274 17.1938C7.12164 17.156 7.03885 17.1007 6.96912 17.031C6.89939 16.9613 6.84407 16.8785 6.80633 16.7874C6.7686 16.6963 6.74917 16.5986 6.74917 16.5C6.74917 16.4014 6.7686 16.3037 6.80633 16.2126C6.84407 16.1215 6.89939 16.0387 6.96912 15.969L10.9396 12L6.96912 8.031C6.89927 7.96133 6.84386 7.87857 6.80605 7.78745C6.76824 7.69633 6.74878 7.59865 6.74878 7.5C6.74878 7.40135 6.76824 7.30367 6.80605 7.21255C6.84386 7.12143 6.89927 7.03867 6.96912 6.969Z" fill="#FAFAFB"/>
</svg>
